<?xml version="1.0" encoding="UTF-8"?>
<svg width="160px" height="104px" viewBox="0 0 160 104" version="1.1" xmlns="http://www.w3.org/2000/svg" xmlns:xlink="http://www.w3.org/1999/xlink">
    <!-- Generator: Sketch 52.5 (67469) - http://www.bohemiancoding.com/sketch -->
    <title>Phone OTP_Initiate IL only</title>
    <desc>Created with Sketch.</desc>
    <defs>
        <rect id="path-1" x="0" y="0" width="61.0781297" height="100.691939" rx="3.85487291"></rect>
        <filter x="-13.9%" y="-6.5%" width="127.8%" height="116.9%" filterUnits="objectBoundingBox" id="filter-2">
            <feOffset dx="0" dy="2" in="SourceAlpha" result="shadowOffsetOuter1"></feOffset>
            <feGaussianBlur stdDeviation="2.5" in="shadowOffsetOuter1" result="shadowBlurOuter1"></feGaussianBlur>
            <feColorMatrix values="0 0 0 0 0   0 0 0 0 0   0 0 0 0 0  0 0 0 0.161769701 0" type="matrix" in="shadowBlurOuter1"></feColorMatrix>
        </filter>
        <rect id="path-3" x="4.24" y="7.97559913" width="52.6535601" height="78.1715837" rx="1.7945098"></rect>
        <filter x="-20.3%" y="-46.2%" width="140.7%" height="192.5%" filterUnits="objectBoundingBox" id="filter-5">
            <feOffset dx="0" dy="2" in="SourceAlpha" result="shadowOffsetOuter1"></feOffset>
            <feGaussianBlur stdDeviation="2.5" in="shadowOffsetOuter1" result="shadowBlurOuter1"></feGaussianBlur>
            <feColorMatrix values="0 0 0 0 0   0 0 0 0 0   0 0 0 0 0  0 0 0 0.15 0" type="matrix" in="shadowBlurOuter1" result="shadowMatrixOuter1"></feColorMatrix>
            <feMerge>
                <feMergeNode in="shadowMatrixOuter1"></feMergeNode>
                <feMergeNode in="SourceGraphic"></feMergeNode>
            </feMerge>
        </filter>
        <linearGradient x1="0%" y1="100%" x2="103.23415%" y2="-4.45851293%" id="linearGradient-6">
            <stop stop-color="#7282FB" offset="0%"></stop>
            <stop stop-color="#755BF9" offset="68.7141263%"></stop>
            <stop stop-color="#7934F7" offset="100%"></stop>
        </linearGradient>
    </defs>
    <g id="Phone-OTP_Initiate-IL-only" stroke="none" stroke-width="1" fill="none" fill-rule="evenodd">
        <path d="M127.900724,89.8363893 C131.605168,93.59721 132.853761,93.6033619 136.637285,89.8751415 C132.853761,93.6033619 132.841176,94.8534549 136.544193,98.6099571 C132.841176,94.8534549 131.59043,94.8444277 127.809061,98.5748028 C131.590433,94.8437072 131.605168,93.59721 127.900724,89.8363893 Z" id="Path-Copy-16" fill="#DFE2E8" transform="translate(132.223173, 94.223173) rotate(-315.000000) translate(-132.223173, -94.223173) "></path>
        <path d="M143.5,54 L140,55.3303483 L140,57.1041459 C140.001296,59.3576945 141.403581,61.3658103 143.5,62.1162551 C145.596419,61.3658103 146.998704,59.3576945 147,57.1041459 L147,55.3303483 L143.5,54 Z" id="Path-Copy-6" stroke="#DFE2E8" stroke-width="1.15555556"></path>
        <path d="M133.842236,11 L131,12.0803325 L131,13.5207758 C131.001053,15.3508092 132.139803,16.9815347 133.842236,17.5909465 C135.544669,16.9815347 136.683419,15.3508092 136.684472,13.5207758 L136.684472,12.0803325 L133.842236,11 Z" id="Path-Copy-9" stroke="#DFE2E8" stroke-width="1.15555556"></path>
        <path d="M17.842236,42 L15,43.0803325 L15,44.5207758 C15.0010528,46.3508092 16.1398027,47.9815347 17.842236,48.5909465 C19.5446693,47.9815347 20.6834193,46.3508092 20.684472,44.5207758 L20.684472,43.0803325 L17.842236,42 Z" id="Path-Copy-10" stroke="#DFE2E8" stroke-width="1.15555556"></path>
        <path d="M118.484652,21.0268914 L119.232766,21.0268914 C119.866076,21.0268914 120.379476,21.5417516 120.379476,21.9684551 L120.379476,21.0268914 C120.379476,21.5469027 119.854428,21.9684551 119.232766,21.9684551 L118.484652,21.9684551 L118.484652,23.3829676 C118.484652,23.6417766 118.264915,23.8515827 118.010946,23.8515827 C117.749325,23.8515827 117.53724,23.6492936 117.53724,23.3829676 L117.53724,21.9684551 L116.789126,21.9684551 C116.155815,21.9684551 115.642416,21.4535949 115.642416,21.0268914 L115.642416,21.9684551 C115.642416,21.4484438 116.167463,21.0268914 116.789126,21.0268914 L117.53724,21.0268914 L117.53724,19.6123789 C117.53724,19.3535699 117.756976,19.1437638 118.010946,19.1437638 C118.272566,19.1437638 118.484652,19.3460529 118.484652,19.6123789 L118.484652,21.0268914 Z" id="Combined-Shape-Copy-9" fill="#DFE2E8" transform="translate(118.010946, 21.497673) rotate(39.000000) translate(-118.010946, -21.497673) "></path>
        <circle id="Oval-2-Copy-4" stroke="#E0E4E9" stroke-width="1.15555556" transform="translate(148.018749, 34.018749) scale(-1, 1) rotate(-37.000000) translate(-148.018749, -34.018749) " cx="148.018749" cy="34.0187488" r="2.73333328"></circle>
        <circle id="Oval-2-Copy-5" stroke="#E0E4E9" stroke-width="1.15555556" transform="translate(21.240521, 23.529410) scale(-1, 1) rotate(-37.000000) translate(-21.240521, -23.529410) " cx="21.2405206" cy="23.5294095" r="1.73333333"></circle>
        <g id="phone" transform="translate(49.000000, 1.000000)">
            <g id="screens" transform="translate(0.666667, 0.000000)">
                <g id="phone-body">
                    <use fill="black" fill-opacity="1" filter="url(#filter-2)" xlink:href="#path-1"></use>
                    <use fill="#E0E4E9" fill-rule="evenodd" xlink:href="#path-1"></use>
                </g>
                <mask id="mask-4" fill="white">
                    <use xlink:href="#path-3"></use>
                </mask>
                <use id="screen-" fill="#FFFFFF" xlink:href="#path-3"></use>
            </g>
            <rect id="ear-copy-2" fill="#F1F1F5" x="26.4" y="2.31111111" width="9.24444444" height="2.31111111" rx="1.15555556"></rect>
            <circle id="home" fill="#FFFFFF" opacity="0.747551306" cx="31.0222222" cy="92.4444444" r="4.62222222"></circle>
        </g>
        <path d="M37.5733335,92.1333333 L33.8,93.5383053 L33.8,95.4116012 C33.8013976,97.7915588 35.3131945,99.9123166 37.5733335,100.704856 C39.8334725,99.9123166 41.3452694,97.7915588 41.346667,95.4116012 L41.346667,93.5383053 L37.5733335,92.1333333 Z" id="Path-Copy-11" stroke="#DFE2E8" stroke-width="1.15555556"></path>
        <path d="M14.3980809,88.8688537 C17.1327514,91.6390084 18.0544794,91.6435398 20.8475274,88.8973979 C18.0544794,91.6435398 18.0451886,92.5643365 20.7788054,95.3313103 C18.0451886,92.5643365 17.1218717,92.5576872 14.3304144,95.3054163 C17.1218734,92.5571565 17.1327514,91.6390084 14.3980809,88.8688537 Z" id="Path-Copy-17" fill="#DFE2E8" transform="translate(17.588971, 92.100082) rotate(-315.000000) translate(-17.588971, -92.100082) "></path>
        <path d="M22.867137,64.147846 L24.0285851,64.147846 C24.4961068,64.147846 24.875108,64.5274601 24.875108,65.0030929 C24.875108,65.4754328 24.4986835,65.8583399 24.0285851,65.8583399 L22.867137,65.8583399 L22.867137,66.9879587 C22.867137,67.4662137 22.4851652,67.853916 22.006578,67.853916 C21.5313044,67.853916 21.146019,67.4620187 21.146019,66.9879587 L21.146019,65.8583399 L19.984571,65.8583399 C19.5170493,65.8583399 19.138048,65.4787258 19.138048,65.0030929 C19.138048,64.5307531 19.5144726,64.147846 19.984571,64.147846 L21.146019,64.147846 L21.146019,63.0182272 C21.146019,62.5399722 21.5279909,62.1522699 22.006578,62.1522699 C22.4818517,62.1522699 22.867137,62.5441671 22.867137,63.0182272 L22.867137,64.147846 Z" id="Combined-Shape-Copy" fill="#DFE2E8" transform="translate(22.006578, 65.003093) scale(-1, 1) rotate(-37.000000) translate(-22.006578, -65.003093) "></path>
        <path d="M134.867137,77.147846 L136.028585,77.147846 C136.496107,77.147846 136.875108,77.5274601 136.875108,78.0030929 C136.875108,78.4754328 136.498684,78.8583399 136.028585,78.8583399 L134.867137,78.8583399 L134.867137,79.9879587 C134.867137,80.4662137 134.485165,80.853916 134.006578,80.853916 C133.531304,80.853916 133.146019,80.4620187 133.146019,79.9879587 L133.146019,78.8583399 L131.984571,78.8583399 C131.517049,78.8583399 131.138048,78.4787258 131.138048,78.0030929 C131.138048,77.5307531 131.514473,77.147846 131.984571,77.147846 L133.146019,77.147846 L133.146019,76.0182272 C133.146019,75.5399722 133.527991,75.1522699 134.006578,75.1522699 C134.481852,75.1522699 134.867137,75.5441671 134.867137,76.0182272 L134.867137,77.147846 Z" id="Combined-Shape-Copy-2" fill="#DFE2E8" transform="translate(134.006578, 78.003093) scale(-1, 1) rotate(-37.000000) translate(-134.006578, -78.003093) "></path>
        <path d="M31.4280429,7.37935357 C34.2107461,10.2047162 35.148664,10.2093383 37.9907719,7.40846886 C35.148664,10.2093383 35.1392097,11.1484856 37.9208407,13.9706039 C35.1392097,11.1484856 34.199675,11.1417035 31.3591856,13.9441917 C34.1996767,11.1411622 34.2107461,10.2047162 31.4280429,7.37935357 Z" id="Path-Copy-13" fill="#DFE2E8" transform="translate(34.674979, 10.674979) rotate(-315.000000) translate(-34.674979, -10.674979) "></path>
        <g id="message" transform="translate(35.000000, 22.000000)">
            <g id="Group-2">
                <g id="mail" filter="url(#filter-5)" fill="url(#linearGradient-6)" stroke="#FFFFFF" stroke-width="4.84400448">
                    <g id="Rectangle-2">
                        <rect x="-2.42200224" y="-2.42200224" width="95.3836337" height="44.0427105" rx="3.22933632"></rect>
                    </g>
                </g>
                <path d="M46.7142857,11.7586207 C46.7142857,12.7870557 45.9473407,13.6206897 45,13.6206897 C44.0537143,13.6206897 43.2857143,12.7870557 43.2857143,11.7586207 C43.2857143,10.7301857 44.0537143,9.89655172 45,9.89655172 C45.9473407,9.89655172 46.7142857,10.7301857 46.7142857,11.7586207 M41.5714286,16.5893687 C41.6012281,16.18487 41.8053271,15.8107374 42.1393072,15.4898886 C42.213525,15.4188435 42.2854938,15.3460796 42.3720812,15.2807639 C43.0422905,14.7725623 44.0655965,14.4482759 45.2142857,14.4482759 C46.3629749,14.4482759 47.386281,14.7725623 48.0564902,15.2807639 C48.1430776,15.3460796 48.2150464,15.4188435 48.2892642,15.4898886 C48.6232443,15.8107374 48.8273433,16.18487 48.8571429,16.5893687 C47.9496615,17.5501963 46.6834609,18.1540796 45.2789452,18.1724138 L45.1496263,18.1724138 C43.7451106,18.1540796 42.4789099,17.5501963 41.5714286,16.5893687 M45,7 C41.6863636,7 39,9.68636364 39,13 C39,16.3136364 41.6863636,19 45,19 C48.3136364,19 51,16.3136364 51,13 C51,9.68636364 48.3136364,7 45,7" id="Fill-" fill-opacity="0.6" fill="#FFFFFF"></path>
                <g id="passcode" transform="translate(20.000000, 22.000000)" fill="#FFFFFF" opacity="0.6">
                    <path d="M5.23319149,4.00921053 C5.7106383,3.78245614 6.16,3.55570175 6.59531915,3.32894737 C7.0306383,3.10219298 7.37234043,2.93815789 7.62510638,2.83201754 C7.87787234,2.72587719 8.08382979,2.67280702 8.23829787,2.67280702 C8.49574468,2.67280702 8.71574468,2.75964912 8.90297872,2.93815789 C9.09021277,3.11666667 9.18382979,3.33377193 9.18382979,3.59912281 C9.18382979,3.74868421 9.13702128,3.90789474 9.04808511,4.06710526 C8.95914894,4.22631579 8.86085106,4.33245614 8.75787234,4.37587719 C7.81234043,4.76184211 6.77787234,5.03684211 5.64042553,5.21052632 C5.84638298,5.40833333 6.09914894,5.66885965 6.3987234,5.99210526 C6.69829787,6.31535088 6.85744681,6.48903509 6.87148936,6.51315789 C6.97914894,6.67236842 7.13361702,6.86535088 7.33021277,7.10175439 C7.52680851,7.33815789 7.66255319,7.51666667 7.74212766,7.65175439 C7.82170213,7.78684211 7.85914894,7.94605263 7.85914894,8.13421053 C7.85914894,8.3754386 7.77021277,8.5877193 7.59702128,8.76622807 C7.42382979,8.94473684 7.19446809,9.03640351 6.91829787,9.03640351 C6.64212766,9.03640351 6.32851064,8.81447368 5.98212766,8.37061404 C5.63574468,7.92675439 5.18638298,7.12587719 4.6387234,5.97280702 C4.08170213,7.01491228 3.71191489,7.7 3.52,8.03289474 C3.32808511,8.36578947 3.14553191,8.61666667 2.97234043,8.78552632 C2.79914894,8.95438596 2.59787234,9.04122807 2.36851064,9.04122807 C2.09702128,9.04122807 1.87234043,8.94473684 1.69446809,8.75175439 C1.51659574,8.55877193 1.42765957,8.35614035 1.42765957,8.13421053 C1.42765957,7.93157895 1.46510638,7.77719298 1.53531915,7.67105263 C2.2093617,6.73026316 2.91148936,5.91008772 3.64170213,5.21535088 C3.02851064,5.11885965 2.48085106,5.00789474 1.99404255,4.8872807 C1.51191489,4.76666667 1.00170213,4.58815789 0.458723404,4.35657895 C0.369787234,4.31315789 0.285531915,4.20701754 0.201276596,4.04780702 C0.117021277,3.88859649 0.074893617,3.73903509 0.074893617,3.59912281 C0.074893617,3.33377193 0.168510638,3.11666667 0.355744681,2.93815789 C0.542978723,2.75964912 0.758297872,2.67280702 0.997021277,2.67280702 C1.17489362,2.67280702 1.39021277,2.72587719 1.65702128,2.83684211 C1.92382979,2.94780702 2.25617021,3.10219298 2.6587234,3.30964912 C3.0612766,3.51710526 3.5293617,3.74868421 4.04425532,4.00438596 C3.9506383,3.53157895 3.87106383,2.98640351 3.81021277,2.36885965 C3.7493617,1.75131579 3.71659574,1.33640351 3.71659574,1.10964912 C3.71659574,0.829824561 3.80085106,0.593421053 3.97404255,0.390789474 C4.14723404,0.188157895 4.36723404,0.0916666667 4.6387234,0.0916666667 C4.90085106,0.0916666667 5.12085106,0.192982456 5.2893617,0.390789474 C5.45787234,0.588596491 5.54680851,0.853947368 5.54680851,1.18684211 C5.54680851,1.27850877 5.53276596,1.45701754 5.5093617,1.72236842 C5.48595745,1.9877193 5.44851064,2.31578947 5.40170213,2.69692982 C5.35489362,3.07807018 5.2893617,3.51710526 5.23319149,4.00921053 Z" id="Path"></path>
                    <path d="M18.7574468,4.00921053 C19.2348936,3.78245614 19.6842553,3.55570175 20.1195745,3.32894737 C20.5548936,3.10219298 20.8965957,2.93815789 21.1493617,2.83201754 C21.4021277,2.72587719 21.6080851,2.67280702 21.7625532,2.67280702 C22.02,2.67280702 22.24,2.75964912 22.427234,2.93815789 C22.6144681,3.11666667 22.7080851,3.33377193 22.7080851,3.59912281 C22.7080851,3.74868421 22.6612766,3.90789474 22.5723404,4.06710526 C22.4834043,4.22631579 22.3851064,4.33245614 22.2821277,4.37587719 C21.3365957,4.76184211 20.3021277,5.03684211 19.1646809,5.21052632 C19.3706383,5.40833333 19.6234043,5.66885965 19.9229787,5.99210526 C20.2225532,6.31535088 20.3817021,6.48903509 20.3957447,6.51315789 C20.5034043,6.67236842 20.6578723,6.86535088 20.8544681,7.10175439 C21.0510638,7.33815789 21.1868085,7.51666667 21.266383,7.65175439 C21.3459574,7.78684211 21.3834043,7.94605263 21.3834043,8.13421053 C21.3834043,8.3754386 21.2944681,8.5877193 21.1212766,8.76622807 C20.9480851,8.94473684 20.7187234,9.03640351 20.4425532,9.03640351 C20.166383,9.03640351 19.852766,8.81447368 19.506383,8.37061404 C19.16,7.92675439 18.7106383,7.12587719 18.1629787,5.97280702 C17.6059574,7.01491228 17.2361702,7.7 17.0442553,8.03289474 C16.8523404,8.36578947 16.6697872,8.61666667 16.4965957,8.78552632 C16.3234043,8.95438596 16.1221277,9.04122807 15.892766,9.04122807 C15.6212766,9.04122807 15.3965957,8.94473684 15.2187234,8.75175439 C15.0408511,8.55877193 14.9519149,8.35614035 14.9519149,8.13421053 C14.9519149,7.93157895 14.9893617,7.77719298 15.0595745,7.67105263 C15.733617,6.73026316 16.4357447,5.91008772 17.1659574,5.21535088 C16.552766,5.11885965 16.0051064,5.00789474 15.5182979,4.8872807 C15.0361702,4.76666667 14.5259574,4.58815789 13.9829787,4.35657895 C13.8940426,4.31315789 13.8097872,4.20701754 13.7255319,4.04780702 C13.6412766,3.88859649 13.5991489,3.73903509 13.5991489,3.59912281 C13.5991489,3.33377193 13.692766,3.11666667 13.88,2.93815789 C14.067234,2.75964912 14.2825532,2.67280702 14.5212766,2.67280702 C14.6991489,2.67280702 14.9144681,2.72587719 15.1812766,2.83684211 C15.4480851,2.94780702 15.7804255,3.10219298 16.1829787,3.30964912 C16.5855319,3.51710526 17.053617,3.74868421 17.5685106,4.00438596 C17.4748936,3.53157895 17.3953191,2.98640351 17.3344681,2.36885965 C17.273617,1.75131579 17.2408511,1.33640351 17.2408511,1.10964912 C17.2408511,0.829824561 17.3251064,0.593421053 17.4982979,0.390789474 C17.6714894,0.188157895 17.8914894,0.0916666667 18.1629787,0.0916666667 C18.4251064,0.0916666667 18.6451064,0.192982456 18.813617,0.390789474 C18.9821277,0.588596491 19.0710638,0.853947368 19.0710638,1.18684211 C19.0710638,1.27850877 19.0570213,1.45701754 19.033617,1.72236842 C19.0102128,1.9877193 18.972766,2.31578947 18.9259574,2.69692982 C18.8791489,3.07807018 18.813617,3.51710526 18.7574468,4.00921053 Z" id="Path"></path>
                    <path d="M32.2817021,4.00921053 C32.7591489,3.78245614 33.2085106,3.55570175 33.6438298,3.32894737 C34.0791489,3.10219298 34.4208511,2.93815789 34.673617,2.83201754 C34.926383,2.72587719 35.1323404,2.67280702 35.2868085,2.67280702 C35.5442553,2.67280702 35.7642553,2.75964912 35.9514894,2.93815789 C36.1387234,3.11666667 36.2323404,3.33377193 36.2323404,3.59912281 C36.2323404,3.74868421 36.1855319,3.90789474 36.0965957,4.06710526 C36.0076596,4.22631579 35.9093617,4.33245614 35.806383,4.37587719 C34.8608511,4.76184211 33.826383,5.03684211 32.6889362,5.21052632 C32.8948936,5.40833333 33.1476596,5.66885965 33.447234,5.99210526 C33.7468085,6.31535088 33.9059574,6.48903509 33.92,6.51315789 C34.0276596,6.67236842 34.1821277,6.86535088 34.3787234,7.10175439 C34.5753191,7.33815789 34.7110638,7.51666667 34.7906383,7.65175439 C34.8702128,7.78684211 34.9076596,7.94605263 34.9076596,8.13421053 C34.9076596,8.3754386 34.8187234,8.5877193 34.6455319,8.76622807 C34.4723404,8.94473684 34.2429787,9.03640351 33.9668085,9.03640351 C33.6906383,9.03640351 33.3770213,8.81447368 33.0306383,8.37061404 C32.6842553,7.92675439 32.2348936,7.12587719 31.687234,5.97280702 C31.1302128,7.01491228 30.7604255,7.7 30.5685106,8.03289474 C30.3765957,8.36578947 30.1940426,8.61666667 30.0208511,8.78552632 C29.8476596,8.95438596 29.646383,9.04122807 29.4170213,9.04122807 C29.1455319,9.04122807 28.9208511,8.94473684 28.7429787,8.75175439 C28.5651064,8.55877193 28.4761702,8.35614035 28.4761702,8.13421053 C28.4761702,7.93157895 28.513617,7.77719298 28.5838298,7.67105263 C29.2578723,6.73026316 29.96,5.91008772 30.6902128,5.21535088 C30.0770213,5.11885965 29.5293617,5.00789474 29.0425532,4.8872807 C28.5604255,4.76666667 28.0502128,4.58815789 27.507234,4.35657895 C27.4182979,4.31315789 27.3340426,4.20701754 27.2497872,4.04780702 C27.1655319,3.88859649 27.1234043,3.73903509 27.1234043,3.59912281 C27.1234043,3.33377193 27.2170213,3.11666667 27.4042553,2.93815789 C27.5914894,2.75964912 27.8068085,2.67280702 28.0455319,2.67280702 C28.2234043,2.67280702 28.4387234,2.72587719 28.7055319,2.83684211 C28.9723404,2.94780702 29.3046809,3.10219298 29.707234,3.30964912 C30.1097872,3.51710526 30.5778723,3.74868421 31.092766,4.00438596 C30.9991489,3.53157895 30.9195745,2.98640351 30.8587234,2.36885965 C30.7978723,1.75131579 30.7651064,1.33640351 30.7651064,1.10964912 C30.7651064,0.829824561 30.8493617,0.593421053 31.0225532,0.390789474 C31.1957447,0.188157895 31.4157447,0.0916666667 31.687234,0.0916666667 C31.9493617,0.0916666667 32.1693617,0.192982456 32.3378723,0.390789474 C32.506383,0.588596491 32.5953191,0.853947368 32.5953191,1.18684211 C32.5953191,1.27850877 32.5812766,1.45701754 32.5578723,1.72236842 C32.5344681,1.9877193 32.4970213,2.31578947 32.4502128,2.69692982 C32.4034043,3.07807018 32.3425532,3.51710526 32.2817021,4.00921053 Z" id="Path"></path>
                    <path d="M45.8106383,4.00921053 C46.2880851,3.78245614 46.7374468,3.55570175 47.172766,3.32894737 C47.6080851,3.10219298 47.9497872,2.93815789 48.2025532,2.83201754 C48.4553191,2.72587719 48.6612766,2.67280702 48.8157447,2.67280702 C49.0731915,2.67280702 49.2931915,2.75964912 49.4804255,2.93815789 C49.6676596,3.11666667 49.7612766,3.33377193 49.7612766,3.59912281 C49.7612766,3.74868421 49.7144681,3.90789474 49.6255319,4.06710526 C49.5365957,4.22631579 49.4382979,4.33245614 49.3353191,4.37587719 C48.3897872,4.76184211 47.3506383,5.03684211 46.2178723,5.21052632 C46.4238298,5.40833333 46.6765957,5.66885965 46.9761702,5.99210526 C47.2757447,6.31535088 47.4348936,6.48903509 47.4489362,6.51315789 C47.5565957,6.67236842 47.7110638,6.86535088 47.9076596,7.10175439 C48.1042553,7.33815789 48.24,7.51666667 48.3195745,7.65175439 C48.3991489,7.78684211 48.4365957,7.94605263 48.4365957,8.13421053 C48.4365957,8.3754386 48.3476596,8.5877193 48.1744681,8.76622807 C48.0012766,8.94473684 47.7719149,9.03640351 47.4957447,9.03640351 C47.2195745,9.03640351 46.9059574,8.81447368 46.5595745,8.37061404 C46.2131915,7.92675439 45.7638298,7.12587719 45.2161702,5.97280702 C44.6591489,7.01491228 44.2893617,7.7 44.0974468,8.03289474 C43.9055319,8.36578947 43.7229787,8.61666667 43.5497872,8.78552632 C43.3765957,8.95438596 43.1753191,9.04122807 42.9459574,9.04122807 C42.6744681,9.04122807 42.4497872,8.94473684 42.2719149,8.75175439 C42.0940426,8.55877193 42.0051064,8.35614035 42.0051064,8.13421053 C42.0051064,7.93157895 42.0425532,7.77719298 42.112766,7.67105263 C42.7868085,6.73026316 43.4889362,5.91008772 44.2191489,5.21535088 C43.6059574,5.11885965 43.0582979,5.00789474 42.5714894,4.8872807 C42.0893617,4.76666667 41.5791489,4.58815789 41.0361702,4.35657895 C40.947234,4.31315789 40.8629787,4.20701754 40.7787234,4.04780702 C40.6944681,3.88859649 40.6523404,3.73903509 40.6523404,3.59912281 C40.6523404,3.33377193 40.7459574,3.11666667 40.9331915,2.93815789 C41.1204255,2.75964912 41.3357447,2.67280702 41.5744681,2.67280702 C41.7523404,2.67280702 41.9676596,2.72587719 42.2344681,2.83684211 C42.5012766,2.94780702 42.833617,3.10219298 43.2361702,3.30964912 C43.6387234,3.51710526 44.1068085,3.74868421 44.6217021,4.00438596 C44.5280851,3.53157895 44.4485106,2.98640351 44.3876596,2.36885965 C44.3268085,1.75131579 44.2940426,1.33640351 44.2940426,1.10964912 C44.2940426,0.829824561 44.3782979,0.593421053 44.5514894,0.390789474 C44.7246809,0.188157895 44.9446809,0.0916666667 45.2161702,0.0916666667 C45.4782979,0.0916666667 45.6982979,0.192982456 45.8668085,0.390789474 C46.0353191,0.588596491 46.1242553,0.853947368 46.1242553,1.18684211 C46.1242553,1.27850877 46.1102128,1.45701754 46.0868085,1.72236842 C46.0634043,1.9877193 46.0259574,2.31578947 45.9791489,2.69692982 C45.9323404,3.07807018 45.8668085,3.51710526 45.8106383,4.00921053 Z" id="Path"></path>
                </g>
            </g>
        </g>
    </g>
</svg>